<svg xmlns="http://www.w3.org/2000/svg" xmlns:xlink="http://www.w3.org/1999/xlink" width="348" zoomAndPan="magnify" viewBox="0 0 261 115.499997" height="154" preserveAspectRatio="xMidYMid meet" version="1.0"><defs><clipPath id="5ce00189fe"><path d="M 2 0.183594 L 259 0.183594 L 259 115 L 2 115 Z M 2 0.183594 " clip-rule="nonzero"/></clipPath></defs><g clip-path="url(#5ce00189fe)"><path fill="#ffffff" d="M 38.003906 57.351562 C 39.835938 57.351562 41.582031 57.714844 43.179688 58.367188 L 22.769531 31.796875 C 19.050781 26.949219 12.191406 25.964844 7.246094 29.464844 C 4.789062 31.019531 2.980469 33.507812 2.339844 36.433594 C 2.332031 36.457031 2.332031 36.472656 2.324219 36.492188 C 2.300781 36.605469 2.289062 36.71875 2.265625 36.820312 C 2.0625 37.832031 2.003906 38.867188 2.078125 39.890625 L 2.078125 102.105469 C 2.078125 108.199219 7.023438 113.140625 13.117188 113.140625 C 19.210938 113.140625 24.152344 108.199219 24.152344 102.105469 L 24.152344 71.1875 C 24.167969 63.554688 30.375 57.351562 38.003906 57.351562 M 73.320312 105.070312 C 73.699219 103.949219 73.917969 102.746094 73.917969 101.5 L 73.917969 38.195312 C 73.917969 32.09375 68.972656 27.160156 62.878906 27.160156 C 56.777344 27.160156 51.84375 32.101562 51.84375 38.195312 L 51.84375 70.582031 C 51.84375 78.207031 45.636719 84.421875 38.003906 84.421875 C 36.601562 84.421875 35.242188 84.203125 33.964844 83.816406 L 53.148438 108.789062 C 56.957031 113.746094 64.074219 114.679688 69.035156 110.871094 L 69.445312 110.550781 C 71.085938 109.289062 72.28125 107.652344 73.015625 105.859375 C 73.066406 105.742188 73.101562 105.621094 73.15625 105.503906 C 73.207031 105.359375 73.269531 105.21875 73.320312 105.070312 M 160.460938 75.503906 L 160.445312 38.277344 C 160.453125 38.1875 160.460938 38.136719 160.460938 38.136719 C 160.460938 32.042969 155.515625 27.097656 149.421875 27.097656 C 149.421875 27.097656 149.414062 27.097656 149.414062 27.097656 C 149.414062 27.097656 149.40625 27.097656 149.40625 27.097656 C 143.316406 27.097656 138.371094 32.042969 138.371094 38.136719 L 138.371094 75.496094 C 138.371094 77.164062 138.191406 78.707031 137.863281 80.148438 C 137.730469 80.582031 137.585938 81.015625 137.414062 81.449219 C 136.652344 83.367188 135.59375 85.117188 134.265625 86.640625 C 132.941406 88.148438 131.375 89.386719 129.597656 90.304688 C 128.425781 90.917969 127.191406 91.304688 125.914062 91.507812 C 125.683594 91.539062 125.460938 91.582031 125.21875 91.605469 C 125.160156 91.613281 125.09375 91.613281 125.035156 91.613281 C 124.644531 91.640625 124.257812 91.664062 123.859375 91.664062 C 123.464844 91.664062 123.070312 91.640625 122.6875 91.613281 C 122.621094 91.605469 122.5625 91.605469 122.496094 91.605469 C 122.261719 91.582031 122.03125 91.539062 121.800781 91.507812 C 120.523438 91.304688 119.292969 90.917969 118.117188 90.304688 C 116.347656 89.378906 114.773438 88.148438 113.453125 86.640625 C 112.121094 85.117188 111.0625 83.367188 110.300781 81.449219 C 110.128906 81.023438 109.984375 80.589844 109.851562 80.148438 C 109.523438 78.707031 109.34375 77.164062 109.34375 75.496094 L 109.34375 38.136719 C 109.34375 32.042969 104.402344 27.097656 98.308594 27.097656 C 98.308594 27.097656 98.300781 27.097656 98.300781 27.097656 C 98.300781 27.097656 98.292969 27.097656 98.292969 27.097656 C 92.199219 27.097656 87.253906 32.042969 87.253906 38.136719 C 87.253906 38.136719 87.261719 38.171875 87.269531 38.234375 L 87.253906 75.503906 C 87.253906 81.335938 88.21875 86.683594 90.128906 91.386719 C 92.042969 96.101562 94.707031 100.164062 98.046875 103.449219 C 101.382812 106.734375 105.328125 109.3125 109.761719 111.09375 C 113.371094 112.542969 117.222656 113.378906 121.238281 113.65625 C 122.054688 113.730469 122.875 113.785156 123.691406 113.785156 C 123.75 113.785156 123.800781 113.777344 123.859375 113.777344 C 123.914062 113.777344 123.972656 113.785156 124.027344 113.785156 C 124.847656 113.785156 125.660156 113.730469 126.476562 113.65625 C 130.492188 113.378906 134.347656 112.542969 137.953125 111.09375 C 142.386719 109.3125 146.332031 106.742188 149.667969 103.449219 C 153.007812 100.164062 155.671875 96.101562 157.585938 91.386719 C 159.488281 86.683594 160.460938 81.34375 160.460938 75.503906 M 195.410156 75.730469 L 195.410156 49.25 L 210.539062 49.25 C 215.527344 49.007812 219.507812 43.09375 219.507812 38.0625 C 219.507812 33.027344 215.535156 27.726562 210.539062 27.488281 L 195.410156 27.488281 L 195.410156 11.933594 C 195.410156 5.839844 190.464844 0.894531 184.363281 0.894531 C 178.269531 0.894531 173.328125 5.839844 173.328125 11.933594 L 173.3125 75.730469 C 173.3125 81.5625 174.277344 86.90625 176.1875 91.613281 C 178.097656 96.324219 180.765625 100.378906 184.101562 103.671875 C 187.441406 106.957031 191.382812 109.535156 195.820312 111.320312 C 199.890625 112.953125 201.847656 113.820312 207.910156 113.820312 C 217.238281 113.820312 221.128906 108.878906 221.128906 102.785156 C 221.128906 97.675781 218.082031 92.589844 211.054688 92.300781 C 207.664062 92.15625 206.050781 91.53125 204.363281 90.851562 C 202.609375 90.148438 201.054688 89.101562 199.746094 87.75 C 198.433594 86.390625 197.371094 84.683594 196.589844 82.671875 C 195.804688 80.640625 195.410156 78.3125 195.410156 75.730469 M 258.914062 101.613281 C 258.914062 94.644531 253.246094 88.976562 246.277344 88.976562 C 239.3125 88.976562 233.644531 94.644531 233.644531 101.613281 C 233.644531 108.578125 239.3125 114.246094 246.277344 114.246094 C 253.246094 114.246094 258.914062 108.578125 258.914062 101.613281 " fill-opacity="1" fill-rule="nonzero"/></g></svg>